<?xml version="1.0" encoding="UTF-8" standalone="no"?>
<svg
   width="40"
   height="40"
   viewBox="0 0 40 40"
   fill="#3c86f4"
   version="1.1"
   id="svg4"
   sodipodi:docname="filters.svg"
   xmlns:inkscape="http://www.inkscape.org/namespaces/inkscape"
   xmlns:sodipodi="http://sodipodi.sourceforge.net/DTD/sodipodi-0.dtd"
   xmlns="http://www.w3.org/2000/svg"
   xmlns:svg="http://www.w3.org/2000/svg">
  <defs
     id="defs8" />
  <sodipodi:namedview
     id="namedview6"
     pagecolor="#ffffff"
     bordercolor="#000000"
     borderopacity="0.25"
     inkscape:showpageshadow="2"
     inkscape:pageopacity="0.0"
     inkscape:pagecheckerboard="0"
     inkscape:deskcolor="#d1d1d1"
     showgrid="true">
    <inkscape:grid
       type="xygrid"
       id="grid291" />
  </sodipodi:namedview>
  <path
     d="m 16.350594,21.739729 c 1.67744,0 3.0869,1.1473 3.4866,2.7 h 10.0134 c 0.497,0 0.9,0.403 0.9,0.9 0,0.4419 -0.3184,0.8093 -0.7382,0.8854 l -0.1618,0.0146 -10.0139,0.0018 c -0.4003,1.5518 -1.80931,2.6982 -3.4861,2.6982 -1.67679,0 -3.08583,-1.1464 -3.48611,-2.6982 l -2.81389,-0.0018 c -0.4970527,0 -0.9000007,-0.403 -0.9000007,-0.9 0,-0.4419 0.318384,-0.8093 0.7382159,-0.8854 l 0.1617848,-0.0146 h 2.81342 c 0.39965,-1.5527 1.80914,-2.7 3.48658,-2.7 z m 0,1.8 c -0.9941,0 -1.8,0.8059 -1.8,1.8 0,0.9941 0.8059,1.8 1.8,1.8 0.9941,0 1.8,-0.8059 1.8,-1.8 0,-0.9941 -0.8059,-1.8 -1.8,-1.8 z m 7.2,-12.6 c 1.6774,0 3.087,1.14728 3.4866,2.69996 l 2.8134,4e-5 c 0.497,0 0.9,0.40295 0.9,0.9 0,0.44183 -0.3184,0.8093 -0.7382,0.88549 l -0.1618,0.01451 -2.8139,0.0018 c -0.4002,1.55178 -1.8092,2.69816 -3.4861,2.69816 -1.6768,0 -3.0858,-1.14638 -3.4861,-2.69816 l -10.0139,-0.0018 c -0.4970527,0 -0.9000007,-0.40295 -0.9000007,-0.9 0,-0.44183 0.318384,-0.8093 0.7382159,-0.88549 l 0.1617848,-0.01451 10.0134,-4e-5 c 0.3997,-1.55268 1.8092,-2.69996 3.4866,-2.69996 z m 0,1.8 c -0.9941,0 -1.8,0.8059 -1.8,1.8 0,0.9941 0.8059,1.8 1.8,1.8 0.9941,0 1.8,-0.8059 1.8,-1.8 0,-0.9941 -0.8059,-1.8 -1.8,-1.8 z"
     id="path2" />
</svg>
