<?xml version="1.0" encoding="UTF-8" standalone="no"?>
<svg
   width="24"
   height="24"
   viewBox="0 0 24 24"
   fill="#bfbfbf"
   version="1.1"
   id="svg24"
   xmlns="http://www.w3.org/2000/svg"
   xmlns:svg="http://www.w3.org/2000/svg">
  <defs
     id="defs28" />
  <path
     d="m 14.698209,16.177568 c 0.4971,0 0.9,0.4029 0.9,0.9 0,0.4971 -0.4029,0.9 -0.9,0.9 H 9.2982163 c -0.49705,0 -0.9,-0.4029 -0.9,-0.9 0,-0.4971 0.40295,-0.9 0.9,-0.9 z m 2.4,-5.1 c 0.4971,0 0.9,0.40294 0.9,0.9 0,0.49706 -0.4029,0.9 -0.9,0.9 H 6.8982163 c -0.49705,0 -0.9,-0.40294 -0.9,-0.9 0,-0.49706 0.40295,-0.9 0.9,-0.9 z m 2.4,-5.0999994 c 0.4971,0 0.9,0.402944 0.9,0.9 0,0.49706 -0.4029,0.9 -0.9,0.9 H 4.4982163 c -0.497054,0 -0.899998,-0.40294 -0.899998,-0.9 0,-0.497056 0.402944,-0.9 0.899998,-0.9 z"
     id="path20" />
  <path
     d="m 14.698209,16.177568 c 0.4971,0 0.9,0.4029 0.9,0.9 0,0.4971 -0.4029,0.9 -0.9,0.9 H 9.2982163 c -0.49705,0 -0.9,-0.4029 -0.9,-0.9 0,-0.4971 0.40295,-0.9 0.9,-0.9 z m 2.4,-5.1 c 0.4971,0 0.9,0.40294 0.9,0.9 0,0.49706 -0.4029,0.9 -0.9,0.9 H 6.8982163 c -0.49705,0 -0.9,-0.40294 -0.9,-0.9 0,-0.49706 0.40295,-0.9 0.9,-0.9 z m 2.4,-5.0999994 c 0.4971,0 0.9,0.402944 0.9,0.9 0,0.49706 -0.4029,0.9 -0.9,0.9 H 4.4982163 c -0.497054,0 -0.899998,-0.40294 -0.899998,-0.9 0,-0.497056 0.402944,-0.9 0.899998,-0.9 z"
     id="path22" />
</svg>
